<svg aria-hidden="true" style="position: absolute; width: 0; height: 0; overflow: hidden;" version="1.1" xmlns="http://www.w3.org/2000/svg" xmlns:xlink="http://www.w3.org/1999/xlink">
<defs>
<symbol id="icon-twitter" viewBox="0 0 32 32">
<path d="M29.333 7.72c-1.013 0.44-2.067 0.733-3.147 0.853 1.133-0.68 2-1.747 2.413-3.027-1.080 0.653-2.253 1.093-3.48 1.333-0.827-0.88-1.92-1.48-3.12-1.68-1.187-0.2-2.413 0-3.48 0.573s-1.92 1.48-2.413 2.587c-0.493 1.093-0.613 2.333-0.32 3.507-2.187-0.107-4.307-0.667-6.253-1.653-1.933-0.987-3.653-2.373-5.013-4.053-0.493 0.84-0.747 1.787-0.733 2.747-0.013 0.907 0.213 1.787 0.64 2.587 0.413 0.787 1.027 1.467 1.787 1.973-0.88-0.027-1.733-0.267-2.48-0.693v0.080c0 1.253 0.44 2.467 1.24 3.44s1.92 1.64 3.16 1.893c-0.48 0.133-0.973 0.213-1.467 0.213-0.347 0-0.693-0.027-1.027-0.080 0.347 1.080 1.027 2.027 1.947 2.707 0.907 0.68 2.013 1.053 3.16 1.080-1.933 1.507-4.307 2.333-6.747 2.347-0.453 0-0.893-0.027-1.333-0.093 2.493 1.627 5.4 2.48 8.387 2.467 2.040 0.027 4.080-0.36 5.987-1.133 1.893-0.773 3.627-1.92 5.080-3.373s2.6-3.173 3.387-5.067c0.773-1.907 1.173-3.947 1.16-6 0-0.227 0-0.467 0-0.707 1.040-0.773 1.947-1.733 2.667-2.827z"></path>
</symbol>
<symbol id="icon-shopping-bag" viewBox="0 0 26 32">
<path d="M24 8h-4.8v-1.6c0-1.712-0.688-3.328-1.888-4.528s-2.816-1.872-4.512-1.872c-1.712 0-3.328 0.672-4.528 1.872s-1.872 2.816-1.872 4.528v1.6h-4.8c-0.432 0-0.832 0.16-1.136 0.464s-0.464 0.704-0.464 1.136v17.6c0 1.264 0.496 2.48 1.392 3.392 0.912 0.896 2.128 1.408 3.408 1.408h16c1.264 0 2.48-0.512 3.392-1.408 0.896-0.912 1.408-2.128 1.408-3.392v-17.6c0-0.432-0.176-0.832-0.48-1.136s-0.704-0.464-1.12-0.464zM9.6 6.4c0-0.864 0.336-1.664 0.928-2.272 0.608-0.592 1.408-0.928 2.272-0.928 0.848 0 1.648 0.336 2.256 0.928 0.592 0.608 0.944 1.408 0.944 2.272v1.6h-6.4v-1.6zM22.4 27.2c0 0.416-0.176 0.816-0.48 1.12s-0.704 0.48-1.12 0.48h-16c-0.432 0-0.832-0.176-1.136-0.48s-0.464-0.704-0.464-1.12v-16h3.2v1.6c0 0.416 0.16 0.816 0.464 1.12s0.704 0.48 1.136 0.48c0.416 0 0.816-0.176 1.12-0.48s0.48-0.704 0.48-1.12v-1.6h6.4v1.6c0 0.416 0.16 0.816 0.464 1.12s0.704 0.48 1.136 0.48c0.416 0 0.816-0.176 1.12-0.48s0.48-0.704 0.48-1.12v-1.6h3.2v16z"></path>
</symbol>
<symbol id="icon-left-arrow" viewBox="0 0 21 32">
<path d="M6.971 13.714l10.789-10.789c0.571-0.571 0.891-1.349 0.891-2.149 0-0.823-0.32-1.6-0.891-2.171-0.297-0.274-0.617-0.503-1.006-0.663-0.366-0.137-0.754-0.229-1.166-0.229-0.389 0-0.8 0.091-1.166 0.229-0.366 0.16-0.709 0.389-0.983 0.663l-12.937 12.937c-0.274 0.274-0.503 0.617-0.663 0.983s-0.229 0.777-0.229 1.189c0 0.389 0.069 0.8 0.229 1.166s0.389 0.709 0.663 0.983l12.937 13.074c0.274 0.297 0.617 0.503 0.983 0.663s0.777 0.229 1.166 0.229c0.411 0 0.8-0.069 1.166-0.229 0.389-0.16 0.709-0.366 1.006-0.663 0.571-0.571 0.891-1.349 0.891-2.149s-0.32-1.577-0.891-2.149l-10.789-10.926z"></path>
</symbol>
<symbol id="icon-right-arrow" viewBox="0 0 22 32">
<path d="M19.126 12.431l-13.908-13.932c-0.32-0.295-0.689-0.542-1.083-0.714-0.394-0.148-0.837-0.246-1.255-0.246-0.443 0-0.862 0.098-1.255 0.246-0.418 0.172-0.763 0.418-1.083 0.714-0.615 0.615-0.96 1.452-0.96 2.338 0 0.862 0.345 1.698 0.96 2.314l11.618 11.618-11.618 11.618c-0.615 0.591-0.96 1.428-0.96 2.289 0 0.886 0.345 1.723 0.96 2.338 0.32 0.295 0.665 0.542 1.083 0.689 0.394 0.172 0.812 0.246 1.255 0.246 0.418 0 0.862-0.074 1.255-0.246 0.394-0.148 0.763-0.394 1.083-0.689l13.908-13.932c0.295-0.295 0.542-0.665 0.714-1.058s0.246-0.837 0.246-1.255c0-0.443-0.074-0.886-0.246-1.28s-0.418-0.763-0.714-1.058z"></path>
</symbol>
<symbol id="icon-search" viewBox="0 0 32 32">
<path d="M31.52 29.248l-5.92-5.888c2.288-2.864 3.408-6.512 3.104-10.176-0.288-3.68-2-7.088-4.736-9.552-2.736-2.448-6.32-3.776-10-3.664-3.68 0.096-7.184 1.6-9.792 4.208s-4.112 6.112-4.208 9.792c-0.112 3.68 1.216 7.264 3.664 10 2.464 2.736 5.872 4.448 9.552 4.736 3.664 0.304 7.312-0.816 10.176-3.104l5.904 5.872c0.144 0.16 0.32 0.272 0.512 0.352s0.4 0.128 0.624 0.128c0.208 0 0.416-0.048 0.608-0.128s0.368-0.192 0.512-0.352c0.304-0.288 0.464-0.688 0.464-1.104s-0.16-0.816-0.464-1.12zM14.4 25.6c-2.224 0-4.384-0.672-6.224-1.888-1.856-1.232-3.28-2.992-4.128-5.040s-1.072-4.288-0.64-6.464c0.432-2.176 1.504-4.176 3.072-5.728 1.552-1.568 3.552-2.64 5.728-3.072s4.416-0.208 6.464 0.64c2.048 0.848 3.808 2.272 5.040 4.128 1.216 1.84 1.888 4 1.888 6.224 0 2.96-1.184 5.808-3.296 7.904-2.096 2.112-4.944 3.296-7.904 3.296z"></path>
</symbol>
<symbol fill = '#000' id="icon-delete" viewBox="0 0 28 32">
<path d="M10.033 24.471c0.414 0 0.809-0.169 1.111-0.471 0.282-0.301 0.452-0.696 0.452-1.111v-9.412c0-0.414-0.169-0.809-0.452-1.111-0.301-0.282-0.696-0.452-1.111-0.452s-0.809 0.169-1.111 0.452c-0.301 0.301-0.452 0.696-0.452 1.111v9.412c0 0.414 0.151 0.809 0.452 1.111s0.696 0.471 1.111 0.471zM25.713 5.647h-6.268v-1.581c0-1.242-0.508-2.447-1.374-3.332-0.885-0.885-2.089-1.374-3.332-1.374h-3.144c-1.242 0-2.447 0.489-3.332 1.374-0.866 0.885-1.374 2.089-1.374 3.332v1.581h-6.268c-0.414 0-0.809 0.151-1.111 0.452s-0.452 0.696-0.452 1.111c0 0.414 0.151 0.809 0.452 1.111 0.301 0.282 0.696 0.452 1.111 0.452h1.562v17.261c0 1.242 0.508 2.447 1.374 3.332 0.885 0.866 2.089 1.374 3.332 1.374h12.555c1.242 0 2.447-0.508 3.332-1.374 0.866-0.885 1.374-2.089 1.374-3.332v-17.261h1.562c0.414 0 0.809-0.169 1.111-0.452 0.301-0.301 0.471-0.696 0.471-1.111s-0.169-0.809-0.471-1.111c-0.301-0.301-0.696-0.452-1.111-0.452zM10.033 4.066c0-0.414 0.169-0.809 0.452-1.111 0.301-0.282 0.696-0.452 1.111-0.452h3.144c0.414 0 0.809 0.169 1.111 0.452 0.282 0.301 0.452 0.696 0.452 1.111v1.581h-6.268v-1.581zM21.007 26.033c0 0.414-0.169 0.809-0.452 1.111-0.301 0.282-0.696 0.452-1.111 0.452h-12.555c-0.414 0-0.809-0.169-1.111-0.452-0.282-0.301-0.452-0.696-0.452-1.111v-17.261h15.68v17.261zM16.301 24.471c0.414 0 0.809-0.169 1.111-0.471s0.471-0.696 0.471-1.111v-9.412c0-0.414-0.169-0.809-0.471-1.111-0.301-0.282-0.696-0.452-1.111-0.452s-0.809 0.169-1.111 0.452c-0.282 0.301-0.452 0.696-0.452 1.111v9.412c0 0.414 0.169 0.809 0.452 1.111 0.301 0.301 0.696 0.471 1.111 0.471z"></path>
</symbol>
<symbol id="icon-burger" viewBox="0 0 53 32">
<path d="M2.667 5.333h48c0.693 0 1.36-0.293 1.867-0.8s0.8-1.173 0.8-1.867c0-0.72-0.293-1.387-0.8-1.893s-1.173-0.773-1.867-0.773h-48c-0.72 0-1.387 0.267-1.893 0.773s-0.773 1.173-0.773 1.893c0 0.693 0.267 1.36 0.773 1.867s1.173 0.8 1.893 0.8zM50.667 26.667h-48c-0.72 0-1.387 0.267-1.893 0.773s-0.773 1.173-0.773 1.893c0 0.693 0.267 1.36 0.773 1.867s1.173 0.8 1.893 0.8h48c0.693 0 1.36-0.293 1.867-0.8s0.8-1.173 0.8-1.867c0-0.72-0.293-1.387-0.8-1.893s-1.173-0.773-1.867-0.773zM50.667 13.333h-48c-0.72 0-1.387 0.267-1.893 0.773s-0.773 1.173-0.773 1.893c0 0.693 0.267 1.36 0.773 1.867s1.173 0.8 1.893 0.8h48c0.693 0 1.36-0.293 1.867-0.8s0.8-1.173 0.8-1.867c0-0.72-0.293-1.387-0.8-1.893s-1.173-0.773-1.867-0.773z"></path>
</symbol>
</defs>
</svg>
